<svg
   xmlns:dc="http://purl.org/dc/elements/1.1/"
   xmlns:cc="http://creativecommons.org/ns#"
   xmlns:svg="http://www.w3.org/2000/svg"
   xmlns="http://www.w3.org/2000/svg"
   version="1.1">
  <symbol
     id="imdone-logo-icon"
     class="svg-icon"
     viewBox="0 0 132 132">
    <path
       d="m 6.1149883,6.0524864 118.8031517,0 0,117.7322836 -118.8031517,0 z"
       id="imdone-logo-bg"
       class="base-fill" />
    <path
       d="m 27.577099,69.18301 38.488194,35.30708"
       id="imdone-logo-short-seg"
       class="visible-stroke" />
    <path
       d="M 64.44942,104.52248 103.18958,27.955559"
       id="imdone-logo-long-seg"
       class="visible-stroke" />
    <path
      d="m 52.262768,102.78954 0,0 c 0,-7.262329 5.936634,-13.149605 13.259846,-13.149605 l 0,0 c 3.516724,0 6.88942,1.385399 9.376121,3.851433 2.486702,2.466026 3.883721,5.810684 3.883721,9.298172 l 0,0 c 0,7.26233 -5.936638,13.1496 -13.259842,13.1496 l 0,0 c -7.323212,0 -13.259846,-5.88727 -13.259846,-13.1496 z"
      id="imdone-logo-bottom-circle"
      class="base-stroke"/>
    <path
       d="m 52.262768,102.78954 0,0 c 0,-7.262329 5.936634,-13.149605 13.259846,-13.149605 l 0,0 c 3.516724,0 6.88942,1.385399 9.376121,3.851433 2.486702,2.466026 3.883721,5.810684 3.883721,9.298172 l 0,0 c 0,7.26233 -5.936638,13.1496 -13.259842,13.1496 l 0,0 c -7.323212,0 -13.259846,-5.88727 -13.259846,-13.1496 z"
       id="imdone-logo-bottom-dot"
       class="visible-fill" />
    <path
      d="m 89.951546,27.551674 0,0 c 0,-7.262327 5.936638,-13.149607 13.259844,-13.149607 l 0,0 c 3.51673,0 6.88942,1.385401 9.37613,3.851431 2.4867,2.466028 3.88371,5.810682 3.88371,9.298176 l 0,0 c 0,7.262325 -5.93663,13.149605 -13.25984,13.149605 l 0,0 c -7.323206,0 -13.259844,-5.887279 -13.259844,-13.149605 z"
      id="imdone-logo-right-circle"
      class="base-stroke" />
    <path
       d="m 89.951546,27.551674 0,0 c 0,-7.262327 5.936638,-13.149607 13.259844,-13.149607 l 0,0 c 3.51673,0 6.88942,1.385401 9.37613,3.851431 2.4867,2.466028 3.88371,5.810682 3.88371,9.298176 l 0,0 c 0,7.262325 -5.93663,13.149605 -13.25984,13.149605 l 0,0 c -7.323206,0 -13.259844,-5.887279 -13.259844,-13.149605 z"
       id="imdone-logo-right-dot"
       class="visible-fill" />
     <path
        d="m 14.743418,69.397026 0,0 c 0,-7.262329 5.936634,-13.149609 13.259842,-13.149609 l 0,0 c 3.516729,0 6.889422,1.385399 9.376123,3.851429 2.486706,2.46603 3.88372,5.810684 3.88372,9.29818 l 0,0 c 0,7.262321 -5.936634,13.149605 -13.259844,13.149605 l 0,0 c -7.323208,0 -13.259842,-5.887283 -13.259842,-13.149605 z"
        id="imdone-logo-left-circle"
        class="base-stroke" />
    <path
       d="m 14.743418,69.397026 0,0 c 0,-7.262329 5.936634,-13.149609 13.259842,-13.149609 l 0,0 c 3.516729,0 6.889422,1.385399 9.376123,3.851429 2.486706,2.46603 3.88372,5.810684 3.88372,9.29818 l 0,0 c 0,7.262321 -5.936634,13.149605 -13.259844,13.149605 l 0,0 c -7.323208,0 -13.259842,-5.887283 -13.259842,-13.149605 z"
       id="imdone-logo-left-dot"
       class="visible-fill" />
  </symbol>
</svg>
